# xmcd CD database file
#
# Track frame offsets:
#	150
#	28734
#	58539
#	80514
#	96999
#	138603
#	163052
#	198947
#	215941
#	288319
#
# Disc length: 4031 seconds
#
# Revision: 0
# Processed by: cddbd v1.5.2PL0 Copyright (c) Steve Scherf et al.
# Submitted via: CDex 1.70beta2
#
DISCID=980fbd0a
DTITLE=POPA CHUBBY - Electric Chubbyland(Volume Two)
DYEAR=2006
DGENRE=Blues
TTITLE0=Who Knows
TTITLE1=Come On
TTITLE2=Izabella
TTITLE3=I Don't Live Today
TTITLE4=Little Wing
TTITLE5=Voodoo Chile
TTITLE6=Up From The Skies
TTITLE7=Bold As Love
TTITLE8=San Catri
TTITLE9=Fire
EXTD=YEAR: 2006
EXTT0=
EXTT1=
EXTT2=
EXTT3=
EXTT4=
EXTT5=
EXTT6=
EXTT7=
EXTT8=
EXTT9=
PLAYORDER=
